{"title":"Fruitvale Station TSCam.flv","uid":8798169,"size":409066086,"categoryP":"video","categoryS":"movies","magnet":"?xt=urn:btih:550208525649e4b65c52385011117e65ce2cff62&amp;dn=Fruitvale+Station+TSCam.flv&amp;tr=udp%3A%2F%2Ftracker.openbittorrent.com%3A80&amp;tr=udp%3A%2F%2Fopen.demonii.com%3A1337&amp;tr=udp%3A%2F%2Ftracker.coppersurfer.tk%3A6969&amp;tr=udp%3A%2F%2Fexodus.desync.com%3A6969","seeders":1,"leechers":0,"uploader":"globeplus","files":-1,"time":1376127086,"description":"Fruitvale Station TSCam.flv\n\nGeneral INFO :\n\nFormat                                   : Flash Video\nFile size                                : 390 MiB\nDuration                                 : 1h 19mn\nOverall bit rate                         : 683 Kbps\nWriting application                      : Encoded By\nTagging application                      : Yet Another Metadata Injector for FLV - Version 1.9\n\nVideo\n\nFormat                                   : AVC\nFormat/Info                              : Advanced Video Codec\nFormat profile                           : &lt;a class=&quot;__cf_email__&quot; href=&quot;/cdn-cgi/l/email-protection&quot; data-cfemail=&quot;a2eacbc5cae2ee918c92&quot;&gt;[email&amp;#160;protected]&lt;/a&gt;&lt;script cf-hash='f9e31' type=&quot;text/javascript&quot;&gt;\n/* &lt;![CDATA[ */!function(){try{var t=&quot;currentScript&quot;in document?document.currentScript:function(){for(var t=document.getElementsByTagName(&quot;script&quot;),e=t.length;e--;)if(t[e].getAttribute(&quot;cf-hash&quot;))return t[e]}();if(t&amp;&amp;t.previousSibling){var e,r,n,i,c=t.previousSibling,a=c.getAttribute(&quot;data-cfemail&quot;);if(a){for(e=&quot;&quot;,r=parseInt(a.substr(0,2),16),n=2;a.length-n;n+=2)i=parseInt(a.substr(n,2),16)^r,e+=String.fromCharCode(i);e=document.createTextNode(e),c.parentNode.replaceChild(e,c)}}}catch(u){}}();/* ]]&gt; */&lt;/script&gt;\nFormat settings, CABAC                   : Yes\nFormat settings, ReFrames                : 4 frames\nCodec ID                                 : 7\nDuration                                 : 1h 19mn\nBit rate                                 : 584 Kbps\nWidth                                    : 720 pixels\nHeight                                   : 480 pixels\nDisplay aspect ratio                     : 2.106\nFrame rate mode                          : Constant\nFrame rate                               : 29.970 fps\nStandard                                 : NTSC\nColor space                              : YUV\nChroma subsampling                       : 4:2:0\nBit depth                                : 8 bits\nScan type                                : Progressive\nBits/(Pixel*Frame)                       : 0.056\nStream size                              : 331 MiB (85%)\nWriting library                          : x264 core 125 r2200 999b753\n\nAudio\n\nFormat                                   : AAC\nFormat/Info                              : Advanced Audio Codec\nFormat profile                           : LC\nCodec ID                                 : 10\nDuration                                 : 1h 19mn\nBit rate                                 : 94.4 Kbps\nChannel(s)                               : 2 channels\nChannel positions                        : Front: L R\nSampling rate                            : 44.1 KHz\nCompression mode                         : Lossy\nDelay relative to video                  : 44ms\nStream size                              : 57.4 MiB (15%)\n\n\nPlot\n\nThe film purports to tell the story of Oscar Grant III, a 22-year-old from Hayward, California and his experiences on the last day of his life, before he was fatally shot by BART (Bay Area Rapid Transit) Police in the early morning hours of New Year's Day 2009.\n\n\n\n\n* enjoy ...","torrent":{"xt":"urn:btih:550208525649e4b65c52385011117e65ce2cff62","amp;dn":"Fruitvale+Station+TSCam.flv","amp;tr":["udp%3A%2F%2Ftracker.openbittorrent.com%3A80","udp%3A%2F%2Fopen.demonii.com%3A1337","udp%3A%2F%2Ftracker.coppersurfer.tk%3A6969","udp%3A%2F%2Fexodus.desync.com%3A6969"],"infoHash":"550208525649e4b65c52385011117e65ce2cff62","infoHashBuffer":{"type":"Buffer","data":[85,2,8,82,86,73,228,182,92,82,56,80,17,17,126,101,206,44,255,98]},"announce":[],"urlList":[]}}